<?xml version="1.0" encoding="UTF-8"?>
<svg id="Vrstva_1" data-name="Vrstva 1" xmlns="http://www.w3.org/2000/svg" viewBox="0 0 49 33">
  <defs>
    <style>
      .cls-1 {
        stroke-miterlimit: 10;
      }

      .cls-1, .cls-2 {
        stroke: #000;
      }

      .cls-2 {
        stroke-linecap: round;
        stroke-linejoin: round;
      }
    </style>
  </defs>
  <g id="Expanded">
    <g>
      <path class="cls-1" d="m44.5,32.5H4.5c-2.21,0-4-1.79-4-4V4.5C.5,2.29,2.29.5,4.5.5h40c2.21,0,4,1.79,4,4v24c0,2.21-1.79,4-4,4ZM4.5,2.5c-1.1,0-2,.9-2,2v24c0,1.1.9,2,2,2h40c1.1,0,2-.9,2-2V4.5c0-1.1-.9-2-2-2H4.5Z"/>
      <path class="cls-2" d="m24.5,19.69L6.96,8.34c-.46-.3-.6-.92-.3-1.38s.92-.6,1.38-.3l16.46,10.65,16.46-10.65c.46-.3,1.08-.17,1.38.3s.17,1.08-.3,1.38l-17.54,11.35Z"/>
      <path class="cls-1" d="m6.5,26.5c-.32,0-.64-.16-.83-.44-.31-.46-.18-1.08.28-1.39l9-6c.46-.31,1.08-.18,1.39.28.31.46.18,1.08-.28,1.39l-9,6c-.17.11-.36.17-.55.17Z"/>
      <path class="cls-1" d="m42.5,26.5c-.19,0-.38-.06-.55-.17l-9-6c-.46-.31-.58-.93-.28-1.39.31-.46.93-.58,1.39-.28l9,6c.46.31.58.93.28,1.39-.19.29-.51.44-.83.44Z"/>
    </g>
  </g>
</svg>